<?xml version="1.0" encoding="UTF-8"?>
<svg version="1.1" xmlns="http://www.w3.org/2000/svg" width="118" height="160">
<path d="M0 0 C38.94 0 77.88 0 118 0 C118 52.8 118 105.6 118 160 C79.06 160 40.12 160 0 160 C0 107.2 0 54.4 0 0 Z " fill="#04040E" transform="translate(0,0)"/>
<path d="M0 0 C13 0 13 0 16.96679688 2.4909668 C18.08468247 3.61087214 19.16836165 4.76577441 20.21875 5.94921875 C20.80998657 6.55884964 21.40122314 7.16848053 22.01037598 7.79658508 C23.87336053 9.73162551 25.6858653 11.70670679 27.5 13.6875 C28.74428089 14.99710725 29.99165842 16.30377963 31.2421875 17.60742188 C33.53728354 20.00806833 35.81298467 22.42407763 38.06835938 24.86206055 C41.35434406 28.40454438 44.76777027 31.80647906 48.23828125 35.16796875 C48.92277344 35.83441406 49.60726562 36.50085937 50.3125 37.1875 C51.00988281 37.86167969 51.70726562 38.53585938 52.42578125 39.23046875 C54 41 54 41 54 43 C54.99 43.33 55.98 43.66 57 44 C61.3150645 47.84857104 64.63205061 52.33579518 68 57 C66.79150391 58.12148437 66.79150391 58.12148437 65.55859375 59.265625 C64.51758446 60.25974198 63.47725476 61.25457096 62.4375 62.25 C61.63795898 62.98669922 61.63795898 62.98669922 60.82226562 63.73828125 C57.86907448 66.43789884 57.86907448 66.43789884 56.921875 70.14453125 C58.25775467 72.44359952 59.73963112 73.77228252 61.8125 75.4375 C64.97619554 78.07766585 67.49289696 80.71483051 70 84 C70.845625 84.845625 71.69125 85.69125 72.5625 86.5625 C74.62446523 88.62446523 76.28952335 90.65491172 78 93 C71.29678536 100.23985487 64.52988163 107.41350745 57.6783514 114.51332855 C54.49730806 117.81364951 51.34081332 121.13138124 48.23364258 124.50146484 C45.22474437 127.76325165 42.16034977 130.96275697 39.05218697 134.12998962 C37.88616365 135.33800476 36.74030304 136.56587538 35.61756706 137.81422424 C35.08094507 138.4082756 34.54432308 139.00232697 33.99143982 139.61437988 C33.53195167 140.1360096 33.07246351 140.65763931 32.59905148 141.19507599 C21.10302965 151.6059402 18.60921618 148 0 148 C0 99.16 0 50.32 0 0 Z " fill="#00BD62" transform="translate(37,5)"/>
<path d="M0 0 C7.875 6.75 7.875 6.75 10.64038086 9.52685547 C11.26049545 10.14704559 11.88061005 10.76723572 12.51951599 11.40621948 C13.16147415 12.05333893 13.80343231 12.70045837 14.46484375 13.3671875 C15.14301651 14.04677521 15.82118927 14.72636292 16.51991272 15.42654419 C18.66149141 17.57367002 20.79954529 19.72426627 22.9375 21.875 C24.39885589 23.34137773 25.86044226 24.8075258 27.32226562 26.2734375 C30.88417935 29.84631 34.44293865 33.42229684 38 37 C36.610708 40.1300133 34.99466447 42.25386617 32.57592773 44.66699219 C31.87858017 45.36741638 31.1812326 46.06784058 30.4627533 46.78948975 C29.71063065 47.53442688 28.958508 48.27936401 28.18359375 49.046875 C27.41193375 49.81807678 26.64027374 50.58927856 25.8452301 51.3838501 C24.21599862 53.01006367 22.58434054 54.63384926 20.95043945 56.25537109 C18.43837263 58.74913373 15.93444756 61.25085368 13.43164062 63.75390625 C11.84943051 65.33120295 10.26676395 66.90804196 8.68359375 68.484375 C7.55237343 69.61392609 7.55237343 69.61392609 6.39830017 70.76629639 C5.70410477 71.45411194 5.00990936 72.14192749 4.29467773 72.85058594 C3.68115952 73.46029236 3.0676413 74.06999878 2.43553162 74.69818115 C1 76 1 76 0 76 C0 50.92 0 25.84 0 0 Z " fill="#040811" transform="translate(49,23)"/>
<path d="M0 0 C3.21074813 1.3369439 5.35058574 3.900311 7.70709229 6.37742615 C8.21369385 6.89756287 8.72029541 7.41769958 9.24224854 7.95359802 C10.48743634 9.23402699 11.7232073 10.52360169 12.95709229 11.81492615 C11.49126312 15.18371329 9.61651556 17.42331115 7.04571533 20.03269958 C6.24115402 20.85324829 5.43659271 21.673797 4.60765076 22.51921082 C3.30142509 23.83348053 3.30142509 23.83348053 1.96881104 25.17430115 C1.07346146 26.0786792 0.17811188 26.98305725 -0.74436951 27.9148407 C-2.63896538 29.82394068 -4.53582257 31.73047889 -6.43621826 33.6337738 C-8.86930334 36.07225488 -11.28580277 38.52649722 -13.69866657 40.98496628 C-16.00675604 43.32994719 -18.33260596 45.65718712 -20.65618896 47.98680115 C-21.95330559 49.31321625 -21.95330559 49.31321625 -23.27662659 50.66642761 C-24.09064438 51.47436768 -24.90466217 52.28230774 -25.74334717 53.11473083 C-26.4545723 53.83102661 -27.16579742 54.54732239 -27.89857483 55.2853241 C-30.48267738 57.12862398 -31.93637493 57.13690476 -35.04290771 56.81492615 C-37.48133663 48.99490168 -38.58250343 40.45062132 -35.04290771 32.81492615 C-30.54146525 26.04117349 -24.61638108 20.3782127 -18.79290771 14.75242615 C-18.02068878 14.00139618 -17.24846985 13.25036621 -16.45285034 12.47657776 C-14.20997501 10.32080095 -11.94211757 8.19803076 -9.65228271 6.0922699 C-8.95092697 5.44136383 -8.24957123 4.79045776 -7.52696228 4.11982727 C-6.86674576 3.5357309 -6.20652924 2.95163452 -5.52630615 2.34983826 C-4.66026764 1.57572853 -4.66026764 1.57572853 -3.7767334 0.78598022 C-2.04290771 -0.18507385 -2.04290771 -0.18507385 0 0 Z " fill="#040711" transform="translate(84.04290771484375,84.18507385253906)"/>
</svg>
